# xmcd
# 
# Track frame offsets:
#     150
#     15412
#     41117
#     64627
#     83900
#     106100
#     125750
#     157450
#     176072
# 
# Disc length: 2758
# 
# Revision: 6
# Processed by: cddbd v1.5.2PL0 Copyright (c) Steve Scherf et al.
# Submitted via: fre:ac v1.0.31
# 
DISCID=760ac409
DTITLE=中島 みゆき - Rin Getu
DYEAR=1981
DGENRE=J-POP
TTITLE0=01-あした天気になれ
TTITLE1=02-あなたが海を見ているうちに
TTITLE2=03-あわせ鏡
TTITLE3=04-ひとり上手
TTITLE4=05-雪
TTITLE5=06-バス通り
TTITLE6=07-友情
TTITLE7=08-成人世代
TTITLE8=09-夜曲
EXTD=YEAR: 1981\nアルバム名：臨月
EXTT0=
EXTT1=
EXTT2=
EXTT3=
EXTT4=
EXTT5=
EXTT6=
EXTT7=
EXTT8=
PLAYORDER=
